<mxfile host="app.diagrams.net" agent="Mozilla/5.0 (Macintosh; Intel Mac OS X 10_15_7) AppleWebKit/537.36 (KHTML, like Gecko) Chrome/127.0.0.0 Safari/537.36" version="24.7.17">
  <diagram name="Page-1" id="b5b7bab2-c9e2-2cf4-8b2a-24fd1a2a6d21">
    <mxGraphModel dx="1103" dy="724" grid="1" gridSize="10" guides="1" tooltips="1" connect="1" arrows="1" fold="1" page="1" pageScale="1" pageWidth="827" pageHeight="1169" background="none" math="0" shadow="0">
      <root>
        <mxCell id="0" />
        <mxCell id="1" parent="0" />
        <mxCell id="l5Gs9orbOI9hL1oC6sch-7" style="edgeStyle=orthogonalEdgeStyle;rounded=0;orthogonalLoop=1;jettySize=auto;html=1;entryX=0.5;entryY=1;entryDx=0;entryDy=0;elbow=vertical;curved=1;exitX=1;exitY=0.3333333333333333;exitDx=0;exitDy=0;exitPerimeter=0;" edge="1" parent="1" source="l5Gs9orbOI9hL1oC6sch-1">
          <mxGeometry relative="1" as="geometry">
            <mxPoint x="190" y="480" as="sourcePoint" />
            <mxPoint x="430" y="420" as="targetPoint" />
          </mxGeometry>
        </mxCell>
        <mxCell id="l5Gs9orbOI9hL1oC6sch-11" value="Account Details&lt;div&gt;Search Queries&lt;/div&gt;&lt;div&gt;Notification Subscriptions&lt;/div&gt;&lt;div&gt;Recommendation Requests&lt;/div&gt;" style="edgeLabel;html=1;align=center;verticalAlign=middle;resizable=0;points=[];" vertex="1" connectable="0" parent="l5Gs9orbOI9hL1oC6sch-7">
          <mxGeometry x="-0.0781" y="-3" relative="1" as="geometry">
            <mxPoint x="-23" y="-2" as="offset" />
          </mxGeometry>
        </mxCell>
        <mxCell id="l5Gs9orbOI9hL1oC6sch-1" value="Reader" style="shape=umlActor;verticalLabelPosition=bottom;verticalAlign=top;html=1;" vertex="1" parent="1">
          <mxGeometry x="161" y="452" width="40" height="80" as="geometry" />
        </mxCell>
        <mxCell id="l5Gs9orbOI9hL1oC6sch-9" style="edgeStyle=orthogonalEdgeStyle;rounded=0;orthogonalLoop=1;jettySize=auto;html=1;entryX=0.5;entryY=0;entryDx=0;entryDy=0;curved=1;exitX=1;exitY=0.3333333333333333;exitDx=0;exitDy=0;exitPerimeter=0;" edge="1" parent="1">
          <mxGeometry relative="1" as="geometry">
            <mxPoint x="189" y="227.66666666666674" as="sourcePoint" />
            <mxPoint x="429" y="321" as="targetPoint" />
          </mxGeometry>
        </mxCell>
        <mxCell id="l5Gs9orbOI9hL1oC6sch-12" value="Analytics Requests&lt;div&gt;Content Management Requests&lt;/div&gt;&lt;div&gt;User moderation Requests&lt;/div&gt;&lt;div&gt;&lt;br&gt;&lt;/div&gt;" style="edgeLabel;html=1;align=center;verticalAlign=middle;resizable=0;points=[];" vertex="1" connectable="0" parent="l5Gs9orbOI9hL1oC6sch-9">
          <mxGeometry x="-0.0189" y="3" relative="1" as="geometry">
            <mxPoint x="-33" y="15" as="offset" />
          </mxGeometry>
        </mxCell>
        <mxCell id="l5Gs9orbOI9hL1oC6sch-2" value="Admin" style="shape=umlActor;verticalLabelPosition=bottom;verticalAlign=top;html=1;" vertex="1" parent="1">
          <mxGeometry x="160" y="201" width="40" height="80" as="geometry" />
        </mxCell>
        <mxCell id="l5Gs9orbOI9hL1oC6sch-5" value="&lt;font style=&quot;font-size: 25px;&quot;&gt;DailyDigest&lt;/font&gt;" style="ellipse;whiteSpace=wrap;html=1;" vertex="1" parent="1">
          <mxGeometry x="350" y="320" width="180" height="100" as="geometry" />
        </mxCell>
        <mxCell id="l5Gs9orbOI9hL1oC6sch-14" value="Reader" style="shape=umlActor;verticalLabelPosition=bottom;verticalAlign=top;html=1;" vertex="1" parent="1">
          <mxGeometry x="680" y="440" width="40" height="80" as="geometry" />
        </mxCell>
        <mxCell id="l5Gs9orbOI9hL1oC6sch-15" style="edgeStyle=orthogonalEdgeStyle;rounded=0;orthogonalLoop=1;jettySize=auto;html=1;entryX=0;entryY=0.3333333333333333;entryDx=0;entryDy=0;entryPerimeter=0;curved=1;exitX=0.5;exitY=1;exitDx=0;exitDy=0;" edge="1" parent="1" source="l5Gs9orbOI9hL1oC6sch-5" target="l5Gs9orbOI9hL1oC6sch-14">
          <mxGeometry relative="1" as="geometry" />
        </mxCell>
        <mxCell id="l5Gs9orbOI9hL1oC6sch-16" value="&lt;div&gt;User Interface&lt;/div&gt;&lt;div&gt;Search Results&lt;/div&gt;&lt;div&gt;Notifications&lt;/div&gt;&lt;div&gt;Recommendations&lt;/div&gt;" style="edgeLabel;html=1;align=center;verticalAlign=middle;resizable=0;points=[];" vertex="1" connectable="0" parent="l5Gs9orbOI9hL1oC6sch-15">
          <mxGeometry x="-0.2394" y="-13" relative="1" as="geometry">
            <mxPoint x="57" y="-10" as="offset" />
          </mxGeometry>
        </mxCell>
        <mxCell id="l5Gs9orbOI9hL1oC6sch-17" value="Admin" style="shape=umlActor;verticalLabelPosition=bottom;verticalAlign=top;html=1;" vertex="1" parent="1">
          <mxGeometry x="680" y="200" width="40" height="80" as="geometry" />
        </mxCell>
        <mxCell id="l5Gs9orbOI9hL1oC6sch-18" style="edgeStyle=orthogonalEdgeStyle;rounded=0;orthogonalLoop=1;jettySize=auto;html=1;entryX=0;entryY=0.3333333333333333;entryDx=0;entryDy=0;entryPerimeter=0;curved=1;exitX=0.5;exitY=0;exitDx=0;exitDy=0;" edge="1" parent="1" source="l5Gs9orbOI9hL1oC6sch-5" target="l5Gs9orbOI9hL1oC6sch-17">
          <mxGeometry relative="1" as="geometry" />
        </mxCell>
        <mxCell id="l5Gs9orbOI9hL1oC6sch-20" value="Analytical reports&lt;div&gt;User Activity Data&lt;/div&gt;" style="edgeLabel;html=1;align=center;verticalAlign=middle;resizable=0;points=[];" vertex="1" connectable="0" parent="l5Gs9orbOI9hL1oC6sch-18">
          <mxGeometry x="0.0886" relative="1" as="geometry">
            <mxPoint x="42" y="13" as="offset" />
          </mxGeometry>
        </mxCell>
      </root>
    </mxGraphModel>
  </diagram>
</mxfile>
